<?xml version="1.0" encoding="utf-8"?>
<!-- Generator: Adobe Illustrator 16.0.0, SVG Export Plug-In . SVG Version: 6.00 Build 0)  -->
<!DOCTYPE svg PUBLIC "-//W3C//DTD SVG 1.1//EN" "http://www.w3.org/Graphics/SVG/1.1/DTD/svg11.dtd">
<svg version="1.1" id="Layer_1" xmlns="http://www.w3.org/2000/svg" xmlns:xlink="http://www.w3.org/1999/xlink" x="0px" y="0px"
	 width="400px" height="400px" viewBox="0 0 400 400" enable-background="new 0 0 400 400" xml:space="preserve">
<circle fill="#56BD82" cx="209.896" cy="213.675" r="169.697"/>
<path fill="#459D6C" d="M160.436,287.863l107.163,85.44c0,0,100.087-30.804,111.994-150.804l-111.994-74.771"/>
<path fill="none" d="M69.541,80.031h260.918v260.917H69.541V80.031z"/>
<path fill="#459D6C" d="M250.5,166.5"/>
<polygon fill="#459D6C" points="152.192,164.215 267.599,147.729 266.549,214.854 270.015,322.334 "/>
<path fill="#F1F2F2" d="M160.436,271.378c0,9.068,7.418,16.485,16.486,16.485h65.946c9.069,0,16.487-7.417,16.487-16.485v-98.919
	h-98.919V271.378z M267.599,147.729h-28.853l-8.242-8.244h-41.217l-8.243,8.244h-28.852v16.486h115.406V147.729z"/>
<rect x="160.436" y="224" fill="#F1F2F2" width="98.919" height="63.863"/>
</svg>
